<svg xmlns="http://www.w3.org/2000/svg" width="42.16" height="41.664" viewBox="0 0 42.16 41.664">
  <defs>
    <style>
      .cls-1 {
        fill: #fff;
      }
    </style>
  </defs>
  <g id="advertising" transform="translate(0 -0.418)">
    <path id="Path_29" data-name="Path 29" class="cls-1" d="M83.713,212.362a16.974,16.974,0,0,1-7.138-1.866,21.831,21.831,0,0,0-.9,5.8h8.041Zm0,0" transform="translate(-68.611 -190.476)"/>
    <path id="Path_30" data-name="Path 30" class="cls-1" d="M96.435,352.6v-9.709A15.934,15.934,0,0,0,89.7,344.7,15.072,15.072,0,0,0,96.435,352.6Zm0,0" transform="translate(-81.334 -310.52)"/>
    <path id="Path_31" data-name="Path 31" class="cls-1" d="M54.244,376.527a16.432,16.432,0,0,1-5.236-7.085,15.774,15.774,0,0,0-2.968,2.461A15.8,15.8,0,0,0,54.244,376.527Zm0,0" transform="translate(-41.744 -334.591)"/>
    <path id="Path_32" data-name="Path 32" class="cls-1" d="M76.564,292.491a17,17,0,0,1,7.145-1.87v-3.937H75.668A21.881,21.881,0,0,0,76.564,292.491Zm0,0" transform="translate(-68.608 -259.555)"/>
    <path id="Path_33" data-name="Path 33" class="cls-1" d="M6.818,176.931A17.09,17.09,0,0,1,3.437,174.2,15.751,15.751,0,0,0,0,183.389H5.754a22.759,22.759,0,0,1,1.065-6.457Zm0,0" transform="translate(0 -157.566)"/>
    <path id="Path_34" data-name="Path 34" class="cls-1" d="M5.758,286.684H0a15.761,15.761,0,0,0,3.435,9.191,17.077,17.077,0,0,1,3.376-2.728A23.4,23.4,0,0,1,5.758,286.684Zm0,0" transform="translate(-0.004 -259.555)"/>
    <path id="Path_35" data-name="Path 35" class="cls-1" d="M279.848,14.225l11.943,4.746V.418L279.848,5.164Zm0,0" transform="translate(-253.736)"/>
    <path id="Path_36" data-name="Path 36" class="cls-1" d="M421.476,127.673h0Zm0,0" transform="translate(-382.115 -115.38)"/>
    <path id="Path_37" data-name="Path 37" class="cls-1" d="M421.438,67.684h0Zm0,0" transform="translate(-382.115 -60.989)"/>
    <path id="Path_38" data-name="Path 38" class="cls-1" d="M421.848,67.691v5.6a2.8,2.8,0,1,0,0-5.6Zm0,0" transform="translate(-382.487 -60.996)"/>
    <path id="Path_39" data-name="Path 39" class="cls-1" d="M204.508,376.381a15.8,15.8,0,0,0,8.207-4.627,15.6,15.6,0,0,0-2.964-2.473A16.44,16.44,0,0,1,204.508,376.381Zm0,0" transform="translate(-185.426 -334.446)"/>
    <path id="Path_40" data-name="Path 40" class="cls-1" d="M268.909,295.871a15.756,15.756,0,0,0,3.432-9.188h-5.754a23.368,23.368,0,0,1-1.052,6.446A16.905,16.905,0,0,1,268.909,295.871Zm0,0" transform="translate(-240.759 -259.555)"/>
    <path id="Path_41" data-name="Path 41" class="cls-1" d="M154.2,79.055V74.7s-.021-.005-.021-.008a2.4,2.4,0,0,0-1.384,2.181,2.423,2.423,0,0,0,1.4,2.183Zm0,0" transform="translate(-138.537 -67.343)"/>
    <path id="Path_42" data-name="Path 42" class="cls-1" d="M90.459,127.97c-.177.377-.349.765-.5,1.162a15.838,15.838,0,0,0,6.708,1.808v-7.649a3.872,3.872,0,0,1-1.449-1.154,14.589,14.589,0,0,0-4.757,5.834Zm0,0" transform="translate(-81.563 -110.361)"/>
    <path id="Path_43" data-name="Path 43" class="cls-1" d="M176.886,148.989a3.336,3.336,0,0,1-1.038-.778v6.373a15.2,15.2,0,0,0,1.867-.177Zm0,0" transform="translate(-159.44 -134.003)"/>
    <path id="Path_44" data-name="Path 44" class="cls-1" d="M183.963,286.684h-8.114v3.934a16.973,16.973,0,0,1,7.188,1.856A21.872,21.872,0,0,0,183.963,286.684Zm0,0" transform="translate(-159.44 -259.555)"/>
    <path id="Path_45" data-name="Path 45" class="cls-1" d="M183.87,231.047l-4.978-.026a.658.658,0,0,1-.647-.553l-.321-2.018a16.178,16.178,0,0,1-2.076.194v3.933h8.114C183.947,232.017,183.916,231.55,183.87,231.047Zm0,0" transform="translate(-159.44 -206.754)"/>
    <path id="Path_46" data-name="Path 46" class="cls-1" d="M182.586,344.656a15.4,15.4,0,0,0-6.738-1.8v9.712a14.7,14.7,0,0,0,6.738-7.915Zm0,0" transform="translate(-159.439 -310.489)"/>
    <path id="Path_47" data-name="Path 47" class="cls-1" d="M49.018,121.053q.213-.536.454-1.05a16.257,16.257,0,0,1,4.789-6.042,15.743,15.743,0,0,0-8.214,4.63A15.78,15.78,0,0,0,49.018,121.053Zm0,0" transform="translate(-41.75 -102.949)"/>
    <path id="Path_48" data-name="Path 48" class="cls-1" d="M265.617,176.908l.014.09a22.976,22.976,0,0,1,1.03,6.362h5.754a15.783,15.783,0,0,0-3.428-9.192A16.842,16.842,0,0,1,265.617,176.908Zm0,0" transform="translate(-240.833 -157.538)"/>
    <path id="Path_49" data-name="Path 49" class="cls-1" d="M258.8,159.684l.414,2.658a15.617,15.617,0,0,0,2.415-2l-1.611-.655Zm0,0" transform="translate(-234.657 -144.405)"/>
    <path id="Path_50" data-name="Path 50" class="cls-1" d="M183.034,61.235a.542.542,0,0,1,.225.073,1.966,1.966,0,0,0,.526.052h5.9V52.684h-5.9a2.018,2.018,0,0,0-1.939,2.062v4.676a1.951,1.951,0,0,0,1.187,1.814Zm0,0" transform="translate(-164.879 -47.389)"/>
    <path id="Path_51" data-name="Path 51" class="cls-1" d="M201.883,159.7l1.183,7.661,4.009.011-1.2-7.685h-3.92C201.929,159.684,201.906,159.7,201.883,159.7Zm0,0" transform="translate(-183.046 -144.405)"/>
  </g>
</svg>
