<svg xmlns="http://www.w3.org/2000/svg" width="44" height="44" viewBox="0 0 44 44">
  <defs>
    <style>
      .cls-1 {
        fill: #fff;
      }
    </style>
  </defs>
  <g id="analysis" transform="translate(0 0)">
    <path id="Path_52" data-name="Path 52" class="cls-1" d="M455.871,85.867l.971,1.1a3.668,3.668,0,0,0,1.241-2.75V60.75A3.667,3.667,0,0,0,456.842,58l-.971,1.1a2.2,2.2,0,0,1,.745,1.65V84.217A2.2,2.2,0,0,1,455.871,85.867Zm0,0" transform="translate(-414.083 -52.684)"/>
    <path id="Path_53" data-name="Path 53" class="cls-1" d="M2.933,31.46v.073A3.671,3.671,0,0,0,6.6,35.2H26.4V33.733H6.6a2.2,2.2,0,0,1-2.2-2.2h22V30.066H3.667a2.2,2.2,0,0,1-2.2-2.2V3.666a2.2,2.2,0,0,1,2.2-2.2H37.4a2.2,2.2,0,0,1,2.2,2.2v24.2a2.2,2.2,0,0,1-2.2,2.2H33.733v1.467H37.4a3.671,3.671,0,0,0,3.667-3.667V3.666A3.671,3.671,0,0,0,37.4,0H3.667A3.671,3.671,0,0,0,0,3.666v24.2A3.673,3.673,0,0,0,2.933,31.46Zm0,0"/>
    <path id="Path_54" data-name="Path 54" class="cls-1" d="M40,32h1.467v1.467H40Zm0,0" transform="translate(-36.333 -29.067)"/>
    <path id="Path_55" data-name="Path 55" class="cls-1" d="M72,32h1.467v1.467H72Zm0,0" transform="translate(-65.4 -29.067)"/>
    <path id="Path_56" data-name="Path 56" class="cls-1" d="M104,32h1.467v1.467H104Zm0,0" transform="translate(-94.467 -29.067)"/>
    <path id="Path_57" data-name="Path 57" class="cls-1" d="M44.511,66.149a7.333,7.333,0,1,0,2.148,5.185,7.333,7.333,0,0,0-2.148-5.185Zm-9.334,1.037a5.867,5.867,0,0,1,7.746-.486l-3.9,3.9H33.5a5.82,5.82,0,0,1,1.673-3.415ZM33.5,72.067h4.051l-2.864,2.864A5.79,5.79,0,0,1,33.5,72.067ZM39.325,77.2a5.817,5.817,0,0,1-3.6-1.232l3.6-3.6,3.6,3.6A5.817,5.817,0,0,1,39.325,77.2Zm4.635-2.269-3.6-3.6,3.6-3.6A5.866,5.866,0,0,1,43.96,74.932Zm0,0" transform="translate(-29.059 -58.134)"/>
    <path id="Path_58" data-name="Path 58" class="cls-1" d="M208,200.251a.733.733,0,0,0,.733.733h17.6v-1.467H209.467v-1.747l2.2-1.1,2.606,1.307a.745.745,0,0,0,.846-.141l2.415-2.415,2.415,2.415a.721.721,0,0,0,.591.211.733.733,0,0,0,.537-.323l2.323-3.487,2.323,3.485,1.22-.814-2.933-4.4a.762.762,0,0,0-1.22,0l-2.437,3.658-2.3-2.3a.734.734,0,0,0-1.037,0l-2.559,2.56-2.461-1.231a.733.733,0,0,0-.655,0l-1.872.936v-3.213H208Zm0,0" transform="translate(-188.933 -174.585)"/>
    <path id="Path_59" data-name="Path 59" class="cls-1" d="M208,64.939v7.333a.733.733,0,0,0,.733.733h17.6V71.539H209.467V69.793l2.2-1.1L214.272,70a.733.733,0,0,0,.938-.249l2.323-3.491,2.323,3.485a.733.733,0,0,0,.537.329.721.721,0,0,0,.591-.211l2.416-2.418,2.415,2.415,1.037-1.037-2.933-2.933a.734.734,0,0,0-1.037,0l-2.3,2.3-2.437-3.656a.762.762,0,0,0-1.22,0l-2.575,3.862-2.354-1.178a.733.733,0,0,0-.655,0l-1.872.936V64.939Zm0,0" transform="translate(-188.933 -58.339)"/>
    <path id="Path_60" data-name="Path 60" class="cls-1" d="M40,240h3.667v1.467H40Zm0,0" transform="translate(-36.333 -218)"/>
    <path id="Path_61" data-name="Path 61" class="cls-1" d="M96,240h8.067v1.467H96Zm0,0" transform="translate(-87.2 -218)"/>
    <path id="Path_62" data-name="Path 62" class="cls-1" d="M40,272h6.6v1.467H40Zm0,0" transform="translate(-36.333 -247.067)"/>
    <path id="Path_63" data-name="Path 63" class="cls-1" d="M128,272h5.133v1.467H128Zm0,0" transform="translate(-116.267 -247.067)"/>
    <path id="Path_64" data-name="Path 64" class="cls-1" d="M266.331,318.615v-7.988a2.26,2.26,0,0,0-1.833-2.248,2.2,2.2,0,0,0-1.789.493l-.045.038a2.2,2.2,0,0,0-2.933,0,2.285,2.285,0,0,0-2.2-.436v-3.058a2.259,2.259,0,0,0-1.833-2.248,2.2,2.2,0,0,0-2.567,2.17v8.317l-1.946-1.168a2.02,2.02,0,0,0-1.951-.073l-.115.057a2.029,2.029,0,0,0-.272,3.465l4.591,3.279a.733.733,0,0,0,.426.135H265.6A.733.733,0,0,0,266.331,318.615Zm-1.467-.733H254.1l-4.4-3.142a.566.566,0,0,1-.235-.458.559.559,0,0,1,.311-.5l.115-.057a.556.556,0,0,1,.54.02l3.057,1.833a.733.733,0,0,0,1.111-.628v-9.612a.733.733,0,0,1,.862-.722.793.793,0,0,1,.6.8v5.133a.733.733,0,1,0,1.467,0,.733.733,0,1,1,1.467,0,.733.733,0,1,0,1.467,0,.733.733,0,1,1,1.467,0,.733.733,0,1,0,1.467,0,.733.733,0,0,1,.862-.723.8.8,0,0,1,.6.8Zm0,0" transform="translate(-225.265 -275.349)"/>
  </g>
</svg>
