<svg xmlns="http://www.w3.org/2000/svg" width="40" height="40" viewBox="0 0 40 40">
  <defs>
    <style>
      .cls-1 {
        fill: #fff;
      }
    </style>
  </defs>
  <g id="earnings_1_" data-name="earnings (1)" transform="translate(0 0.001)">
    <path id="Path_3286" data-name="Path 3286" class="cls-1" d="M62.173,21.093A1.168,1.168,0,0,0,63,20.75L71.548,12.2l3.859,3.859a1.171,1.171,0,0,0,1.657,0L89.126,4V5.858a1.172,1.172,0,1,0,2.344,0V1.171c0-.038,0-.077-.006-.115,0-.019-.005-.038-.008-.056s0-.038-.009-.056S91.437.9,91.431.876,91.424.847,91.42.832,91.4.786,91.4.763s-.009-.026-.014-.038S91.361.678,91.35.656L91.333.621C91.32.6,91.305.573,91.29.549L91.275.523c-.021-.031-.043-.062-.067-.091h0a1.2,1.2,0,0,0-.169-.169h0c-.029-.024-.06-.046-.091-.067L90.92.179c-.024-.015-.048-.03-.073-.043L90.813.119C90.791.108,90.768.1,90.744.087L90.706.073c-.023-.009-.045-.017-.069-.024L90.593.038c-.022-.005-.044-.012-.067-.016L90.47.013,90.413,0C90.375,0,90.336,0,90.3,0H85.61a1.172,1.172,0,0,0,0,2.344h1.859L76.235,13.576,72.377,9.717a1.171,1.171,0,0,0-1.657,0l-9.375,9.375a1.172,1.172,0,0,0,.829,2Zm0,0" transform="translate(-56.235 0)"/>
    <path id="Path_3287" data-name="Path 3287" class="cls-1" d="M0,477.641a1.171,1.171,0,0,0,1.172,1.172h9.375a1.171,1.171,0,0,0,1.172-1.172V476H0Zm0,0" transform="translate(0 -438.813)"/>
    <path id="Path_3288" data-name="Path 3288" class="cls-1" d="M10.547,410H1.172A1.171,1.171,0,0,0,0,411.172v1.641H11.719v-1.641A1.171,1.171,0,0,0,10.547,410Zm0,0" transform="translate(0 -377.97)"/>
    <path id="Path_3289" data-name="Path 3289" class="cls-1" d="M181,477.641a1.171,1.171,0,0,0,1.172,1.172h9.375a1.171,1.171,0,0,0,1.172-1.172V476H181Zm0,0" transform="translate(-166.859 -438.813)"/>
    <path id="Path_3290" data-name="Path 3290" class="cls-1" d="M362,410h11.719v2.813H362Zm0,0" transform="translate(-333.719 -377.97)"/>
    <path id="Path_3291" data-name="Path 3291" class="cls-1" d="M372.547,212h-9.375A1.171,1.171,0,0,0,362,213.172v1.641h11.719v-1.641A1.171,1.171,0,0,0,372.547,212Zm0,0" transform="translate(-333.719 -195.438)"/>
    <path id="Path_3292" data-name="Path 3292" class="cls-1" d="M362,278h11.719v2.813H362Zm0,0" transform="translate(-333.719 -256.282)"/>
    <path id="Path_3293" data-name="Path 3293" class="cls-1" d="M362,344h11.719v2.812H362Zm0,0" transform="translate(-333.719 -317.126)"/>
    <path id="Path_3294" data-name="Path 3294" class="cls-1" d="M362,477.641a1.171,1.171,0,0,0,1.172,1.172h9.375a1.171,1.171,0,0,0,1.172-1.172V476H362Zm0,0" transform="translate(-333.719 -438.813)"/>
    <path id="Path_3295" data-name="Path 3295" class="cls-1" d="M181,410h11.719v2.813H181Zm0,0" transform="translate(-166.859 -377.97)"/>
    <path id="Path_3296" data-name="Path 3296" class="cls-1" d="M191.547,344h-9.375A1.171,1.171,0,0,0,181,345.172v1.641h11.719v-1.641A1.171,1.171,0,0,0,191.547,344Zm0,0" transform="translate(-166.859 -317.126)"/>
  </g>
</svg>
