<svg xmlns="http://www.w3.org/2000/svg" width="43.113" height="34.309" viewBox="0 0 43.113 34.309">
  <defs>
    <style>
      .cls-1 {
        fill: #fff;
      }
    </style>
  </defs>
  <g id="home_2_" data-name="home (2)" transform="translate(0.001 -46.994)">
    <g id="Group_5735" data-name="Group 5735" transform="translate(-0.001 46.994)">
      <path id="Path_3278" data-name="Path 3278" class="cls-1" d="M81.1,120.939,65.725,133.615a.363.363,0,0,1-.013.08.365.365,0,0,0-.013.08V146.61a1.736,1.736,0,0,0,1.711,1.712H77.678V138.053h6.846v10.269H94.792A1.738,1.738,0,0,0,96.5,146.61V133.775a.376.376,0,0,0-.027-.16Z" transform="translate(-59.545 -114.013)"/>
      <path id="Path_3279" data-name="Path 3279" class="cls-1" d="M42.815,63.707l-5.856-4.867V47.93a.824.824,0,0,0-.856-.856H30.969a.823.823,0,0,0-.856.856v5.214l-6.525-5.455a3.317,3.317,0,0,0-4.064,0L.3,63.707A.777.777,0,0,0,0,64.282a.866.866,0,0,0,.187.629L1.847,66.89a.912.912,0,0,0,.562.294A.994.994,0,0,0,3.051,67l18.5-15.43L40.061,67a.824.824,0,0,0,.562.186h.08a.913.913,0,0,0,.562-.294l1.658-1.979a.865.865,0,0,0,.186-.629A.779.779,0,0,0,42.815,63.707Z" transform="translate(0.001 -46.994)"/>
    </g>
  </g>
</svg>
