<svg xmlns="http://www.w3.org/2000/svg" width="39.987" height="39.988" viewBox="0 0 39.987 39.988">
  <defs>
    <style>
      .cls-1 {
        fill: #fff;
      }
    </style>
  </defs>
  <g id="money_2_" data-name="money (2)" transform="translate(-0.007)">
    <g id="Group_31" data-name="Group 31" transform="translate(5.318 35.302)">
      <g id="Group_30" data-name="Group 30">
        <path id="Path_69" data-name="Path 69" class="cls-1" d="M69.336,452.23a.78.78,0,1,0,.229.552A.786.786,0,0,0,69.336,452.23Z" transform="translate(-68.003 -452.001)"/>
      </g>
    </g>
    <g id="Group_33" data-name="Group 33" transform="translate(35.344 14.059)">
      <g id="Group_32" data-name="Group 32">
        <path id="Path_70" data-name="Path 70" class="cls-1" d="M453.787,180.237a.779.779,0,1,0,.23.552A.785.785,0,0,0,453.787,180.237Z" transform="translate(-452.454 -180.008)"/>
      </g>
    </g>
    <g id="Group_35" data-name="Group 35" transform="translate(0.007)">
      <g id="Group_34" data-name="Group 34" transform="translate(0)">
        <path id="Path_71" data-name="Path 71" class="cls-1" d="M39.765.229A.781.781,0,0,0,39.213,0H20a.781.781,0,0,0-.781.781V3.016L11.816,5a.781.781,0,0,0-.552.957L15.1,20.275l-3.319,3.319a2.342,2.342,0,0,0-1.934-1.023H2.35A2.346,2.346,0,0,0,.007,24.915v12.73A2.346,2.346,0,0,0,2.35,39.988h7.5a2.347,2.347,0,0,0,2.274-1.779l.929.81a3.935,3.935,0,0,0,2.587.969H39.213a.781.781,0,0,0,.781-.781V.781A.782.782,0,0,0,39.765.229ZM10.628,37.645a.782.782,0,0,1-.781.781H2.35a.782.782,0,0,1-.781-.781V24.915a.782.782,0,0,1,.781-.781H5.318v9a.781.781,0,1,0,1.562,0v-9H9.848a.782.782,0,0,1,.781.781v12.73ZM12.975,6.306l6.245-1.673V7.527l-.523.14a.781.781,0,0,0-.552.957A2.105,2.105,0,0,1,16.657,11.2a.781.781,0,0,0-.552.958L19.149,23.43H17.582l-.808-3.16A.78.78,0,0,0,16.643,20Zm6.245,4.8V17.7l-1.424-5.275A3.659,3.659,0,0,0,19.219,11.108ZM30.44,38.426h-14.8a2.373,2.373,0,0,1-1.56-.585L12.19,36.2v-10.8l3.41-3.41.618,2.42a.781.781,0,0,0,.757.588H32.33a1.093,1.093,0,1,1,0,2.187H24.462a.781.781,0,1,0,0,1.562H34.775a1.093,1.093,0,1,1,0,2.187H24.462a.781.781,0,1,0,0,1.562H33.1a1.093,1.093,0,1,1,0,2.187H24.462a.781.781,0,1,0,0,1.562H30.44a1.093,1.093,0,1,1,0,2.187Zm7.992,0H32.859a2.646,2.646,0,0,0,0-2.187H33.1A2.654,2.654,0,0,0,35.477,32.4a2.653,2.653,0,0,0,1.429-4.142v-9.9a.781.781,0,1,0-1.562,0v8.887a2.656,2.656,0,0,0-.569-.062h-.026a2.654,2.654,0,0,0-2.419-3.749H31.075a3.738,3.738,0,1,0-2.937,0H23.869V8.58a3.677,3.677,0,0,0,2.8-2.8h5.875a3.677,3.677,0,0,0,2.8,2.8v2.428a.781.781,0,0,0,1.562,0V7.883a.781.781,0,0,0-.781-.781,2.105,2.105,0,0,1-2.1-2.1.781.781,0,0,0-.781-.781H25.972A.781.781,0,0,0,25.191,5a2.105,2.105,0,0,1-2.1,2.1.781.781,0,0,0-.781.781V23.431H20.782V1.563H38.432ZM29.607,22.17a2.176,2.176,0,1,1,2.176-2.176A2.178,2.178,0,0,1,29.607,22.17Z" transform="translate(-0.007 0)"/>
      </g>
    </g>
  </g>
</svg>
