<svg xmlns="http://www.w3.org/2000/svg" width="52.928" height="51.87" viewBox="0 0 52.928 51.87">
  <defs>
    <style>
      .cls-1 {
        fill: #fff;
      }
    </style>
  </defs>
  <g id="piggy-bank" transform="translate(0 -5.115)">
    <g id="Group_25" data-name="Group 25" transform="translate(39.409 32.561)">
      <g id="Group_24" data-name="Group 24">
        <path id="Path_66" data-name="Path 66" class="cls-1" d="M385.495,270.613a.77.77,0,0,0-.77.77.978.978,0,1,1-1.956,0,.77.77,0,1,0-1.54,0,2.519,2.519,0,1,0,5.037,0A.77.77,0,0,0,385.495,270.613Z" transform="translate(-381.228 -270.613)"/>
      </g>
    </g>
    <g id="Group_27" data-name="Group 27" transform="translate(0 5.115)">
      <g id="Group_26" data-name="Group 26">
        <path id="Path_67" data-name="Path 67" class="cls-1" d="M50.906,32.687l-2.168-.694a.907.907,0,0,1-.585-.593A13.978,13.978,0,0,0,46.1,27.346a14.875,14.875,0,0,0-1.369-1.615,19.106,19.106,0,0,0,.471-4.363c-.032-1.963-.424-3.114-1.2-3.519-.417-.219-1.687-.883-8.558,2.262a2.5,2.5,0,0,0-.455.271c-.463-.124-.937-.24-1.413-.343L33.407,20a10.493,10.493,0,0,0,.943-3.9.77.77,0,0,0-1.539-.069,8.962,8.962,0,0,1-5.864,8.013,22.338,22.338,0,0,0-6.2,0A8.969,8.969,0,1,1,31.864,11.594.77.77,0,0,0,33.24,10.9a10.514,10.514,0,1,0-14.972,13.64h0q-.718.187-1.424.421a.77.77,0,0,0,.488,1.461,20.672,20.672,0,0,1,13.029,0,.77.77,0,0,0,.488-1.461q-.705-.236-1.424-.421h0a10.5,10.5,0,0,0,3.2-3.126c.212.041.423.084.631.13q.415.09.825.192c-.009.033-.017.067-.024.1a9.186,9.186,0,0,0,.072,4.686,5.577,5.577,0,0,0,2.043,2.871,6.48,6.48,0,0,0,3.791,1.2,5.083,5.083,0,0,0,2.457-.568,4.691,4.691,0,0,0,1.811-2.572q.333.389.631.8a12.437,12.437,0,0,1,1.824,3.608,2.45,2.45,0,0,0,1.585,1.6l2.168.694a1.364,1.364,0,0,1,.951,1.3v3.595a1.364,1.364,0,0,1-.951,1.3l-3.493,1.119a2.38,2.38,0,0,0-1.332,1.082A15.353,15.353,0,0,1,39.2,48.389a1.207,1.207,0,0,0-.633.851l-1.119,5.924a.346.346,0,0,1-.34.282H33.47a.346.346,0,0,1-.34-.282l-.62-3.274a1.21,1.21,0,0,0-1.376-.973,32.2,32.2,0,0,1-4.8.357,30.709,30.709,0,0,1-3.53-.2,1.22,1.22,0,0,0-1.335.979l-.589,3.111a.346.346,0,0,1-.34.282H16.9a.347.347,0,0,1-.34-.284l-1.077-5.595a1.209,1.209,0,0,0-.621-.841A13.6,13.6,0,0,1,7.352,36.049,14.808,14.808,0,0,1,9.215,28.52a13.439,13.439,0,0,1,5.006-4.888A.77.77,0,0,0,13.45,22.3,14.662,14.662,0,0,0,6.01,33.251h0l-.222-.021a3.835,3.835,0,0,0-.282-1.537,3.155,3.155,0,0,0-2.339-2.043,2.129,2.129,0,0,0-2,.893,2.029,2.029,0,0,0-.385,2.213c.388.8,1.385,1.365,3.04,1.72q-.068.1-.15.205A3.78,3.78,0,0,1,.789,36.205a.809.809,0,0,0-.789.8v0a.807.807,0,0,0,.773.8q.083,0,.173,0a5,5,0,0,0,3.925-2.179,4.393,4.393,0,0,0,.562-.908q.218.025.419.043h0c-.026.417-.041.841-.041,1.272a15.874,15.874,0,0,0,2.273,8.5A15.573,15.573,0,0,0,14,50.01L15.05,55.45A1.888,1.888,0,0,0,16.9,56.985h3.637a1.888,1.888,0,0,0,1.854-1.536l.532-2.813a32.463,32.463,0,0,0,3.408.176,33.84,33.84,0,0,0,4.719-.329l.561,2.965a1.888,1.888,0,0,0,1.854,1.536h3.637a1.888,1.888,0,0,0,1.854-1.536l1.089-5.767a16.794,16.794,0,0,0,6.9-6.355.842.842,0,0,1,.468-.386l3.493-1.119a2.9,2.9,0,0,0,2.022-2.771V35.457A2.9,2.9,0,0,0,50.906,32.687ZM43.55,23.532c-.3,2.535-1.092,4.7-1.891,5.157a4.713,4.713,0,0,1-4.58-.538c-1.576-1.153-2.1-3.227-1.517-6h0a.929.929,0,0,1,.529-.644c3.856-1.765,6.08-2.343,6.906-2.343a.806.806,0,0,1,.279.037C43.523,19.47,43.849,20.973,43.55,23.532ZM2.163,32.084c-.08-.164.108-.453.228-.611a.614.614,0,0,1,.495-.3.578.578,0,0,1,.078.005,1.679,1.679,0,0,1,1.113,1.09,2.339,2.339,0,0,1,.161.726C3.171,32.774,2.342,32.455,2.163,32.084Z" transform="translate(0 -5.115)"/>
      </g>
    </g>
    <g id="Group_29" data-name="Group 29" transform="translate(20.969 10.061)">
      <g id="Group_28" data-name="Group 28">
        <path id="Path_68" data-name="Path 68" class="cls-1" d="M206.471,57.644V54.887c.951.068,1.3.5,1.63.5.407,0,.6-.516.6-.774,0-.665-1.3-.951-2.227-.978v-.367c0-.163-.2-.312-.407-.312a.358.358,0,0,0-.394.312v.394a2.521,2.521,0,0,0-2.58,2.526c0,1.738,1.358,2.227,2.58,2.661v3.191c-1.385-.109-1.752-1.059-2.2-1.059-.34,0-.625.448-.625.774,0,.665,1.141,1.575,2.824,1.6h0v.421a.358.358,0,0,0,.394.312c.2,0,.407-.149.407-.312V63.32a2.631,2.631,0,0,0,2.471-2.8C208.942,58.676,207.652,58.078,206.471,57.644Zm-.72-.258c-.72-.272-1.3-.557-1.3-1.331,0-.706.543-1.046,1.3-1.141Zm.638,4.63V59.151a1.588,1.588,0,0,1,1.195,1.521A1.292,1.292,0,0,1,206.389,62.016Z" transform="translate(-202.845 -52.959)"/>
      </g>
    </g>
  </g>
</svg>
